<?xml version="1.0" standalone="no"?>
<!DOCTYPE svg PUBLIC "-//W3C//DTD SVG 20010904//EN"
 "http://www.w3.org/TR/2001/REC-SVG-20010904/DTD/svg10.dtd">
<svg version="1.0" xmlns="http://www.w3.org/2000/svg"
 width="500.000000pt" height="500.000000pt" viewBox="0 0 500.000000 500.000000"
 preserveAspectRatio="xMidYMid meet">

<g transform="translate(0.000000,500.000000) scale(0.100000,-0.100000)"
fill="#ffffff" stroke="none">
<path d="M2316 4989 c-317 -26 -602 -103 -900 -244 -367 -172 -724 -479 -968
-830 -156 -226 -280 -491 -357 -766 -99 -353 -110 -771 -30 -1170 42 -214 162
-524 281 -727 186 -317 444 -596 743 -804 296 -205 647 -348 1000 -407 644
-109 1292 35 1830 407 238 164 475 401 637 637 71 103 152 242 190 325 74 160
89 196 131 326 97 295 140 638 117 923 -50 631 -294 1166 -730 1601 -287 288
-605 484 -990 611 -299 98 -658 143 -954 118z m284 -339 c-80 -21 -188 -56
-240 -76 l-94 -38 44 -14 c122 -40 155 -115 110 -247 -11 -32 -20 -67 -20 -77
0 -56 75 -118 143 -118 31 0 42 8 82 54 57 65 110 95 248 141 58 19 127 44
154 57 51 24 176 141 187 175 4 11 21 28 39 38 29 15 39 16 73 5 46 -14 238
-114 321 -166 124 -78 193 -126 193 -133 0 -4 -15 -15 -32 -25 -46 -26 -108
-86 -119 -115 -8 -19 -4 -36 17 -80 37 -74 36 -107 -4 -143 -56 -49 -119 -28
-172 57 -11 18 -34 38 -51 44 -29 10 -33 8 -87 -50 -31 -34 -61 -69 -66 -80
-13 -27 0 -49 29 -49 54 0 92 -61 110 -175 l6 -41 -61 -18 c-38 -11 -75 -31
-96 -51 -31 -29 -34 -38 -34 -87 0 -34 7 -68 20 -93 31 -62 26 -88 -28 -148
-70 -77 -206 -284 -231 -352 -58 -155 -39 -332 50 -456 35 -49 112 -104 174
-124 54 -17 70 -17 200 -5 136 12 144 11 188 -8 41 -18 49 -28 80 -94 19 -40
45 -102 57 -138 12 -36 33 -91 46 -122 29 -70 30 -95 3 -178 -32 -95 -30 -212
5 -313 33 -99 116 -264 172 -345 l44 -63 -30 -37 c-16 -20 -60 -64 -97 -97
-404 -361 -835 -535 -1363 -552 -235 -8 -496 20 -675 72 -65 19 -75 35 -75
120 0 47 9 71 66 182 116 223 267 473 344 568 114 143 129 165 135 213 13 110
27 156 71 254 82 178 65 233 -88 282 -120 39 -160 66 -387 259 -109 92 -251
164 -386 197 -111 28 -175 23 -273 -18 -103 -44 -135 -49 -161 -23 -13 13 -21
34 -21 55 0 34 -32 103 -89 193 -20 32 -35 70 -39 98 -4 44 -6 46 -30 40 -13
-3 -41 -19 -61 -34 -45 -36 -71 -44 -104 -32 -34 13 -57 59 -57 114 0 74 11
105 51 151 53 60 105 79 207 75 68 -4 84 -8 115 -32 20 -15 44 -42 53 -59 17
-33 24 -30 44 22 53 141 193 308 374 446 61 46 158 122 216 169 58 47 115 88
127 91 17 5 36 -6 76 -40 42 -36 62 -46 89 -46 44 0 54 12 63 77 17 129 -56
287 -157 339 -42 22 -32 43 31 65 114 40 168 99 156 172 -12 75 -47 121 -113
150 -51 23 -73 27 -157 27 -94 0 -100 -1 -218 -52 -67 -28 -153 -59 -191 -70
-68 -17 -226 -36 -226 -26 0 12 164 112 275 167 295 146 588 208 980 209 l210
1 -145 -39z m1702 -1349 c59 -23 118 -41 132 -41 57 0 33 -34 -49 -71 -60 -27
-235 -38 -329 -20 -73 13 -151 49 -191 86 l-30 28 55 19 c169 59 255 59 412
-1z m-3905 -408 c55 -25 73 -43 73 -71 0 -14 9 -45 21 -69 24 -49 88 -93 136
-93 75 0 204 -66 313 -160 73 -63 174 -127 223 -142 21 -6 46 -23 55 -36 15
-22 14 -28 -2 -76 -10 -28 -31 -71 -46 -96 -46 -73 -60 -115 -60 -185 0 -119
43 -196 205 -365 74 -78 108 -121 128 -166 34 -77 63 -256 71 -431 6 -147 32
-293 78 -431 17 -51 28 -95 25 -99 -8 -7 -182 89 -295 164 -255 167 -498 413
-671 678 -137 210 -261 528 -307 790 -41 234 -45 634 -8 782 7 28 12 28 61 6z"/>
</g>
</svg>
