<?xml version="1.0" standalone="no"?>
<!DOCTYPE svg PUBLIC "-//W3C//DTD SVG 20010904//EN"
 "http://www.w3.org/TR/2001/REC-SVG-20010904/DTD/svg10.dtd">
<svg version="1.0" xmlns="http://www.w3.org/2000/svg"
 width="1300.000000pt" height="1300.000000pt" viewBox="0 0 1300.000000 1300.000000"
 preserveAspectRatio="xMidYMid meet">

<g transform="translate(0.000000,1300.000000) scale(0.100000,-0.100000)"
fill="#535bf2" stroke="none">
<path d="M2744 8582 c-226 -136 -422 -255 -435 -264 -23 -16 48 -17 1331 -17
1319 0 1357 -1 1436 -20 239 -59 421 -206 534 -430 51 -102 71 -197 77 -366
l5 -150 37 -40 36 -40 -37 34 -37 34 -3 -979 c-3 -968 -4 -980 -25 -1055 -69
-243 -246 -444 -473 -536 -132 -53 -174 -57 -580 -56 -206 1 -697 2 -1090 2
l-715 1 3 858 c1 471 0 876 -3 899 l-6 42 -259 1 -260 1 0 -1166 0 -1166 1392
4 1393 3 97 22 c54 12 131 34 170 48 450 160 787 561 863 1024 20 127 23 925
3 914 -10 -6 -10 -4 0 7 9 10 12 87 12 313 0 297 0 300 -22 325 l-23 26 23
-19 22 -19 0 410 c0 457 -6 520 -65 700 -148 446 -508 766 -985 875 -93 21
-111 22 -1050 24 l-955 3 -411 -247z m3066 -1367 c19 -19 32 -35 29 -35 -3 0
-20 16 -39 35 -19 19 -32 35 -29 35 3 0 20 -16 39 -35z m80 -80 c19 -19 32
-35 29 -35 -3 0 -20 16 -39 35 -19 19 -32 35 -29 35 3 0 20 -16 39 -35z m80
-80 c19 -19 32 -35 29 -35 -3 0 -20 16 -39 35 -19 19 -32 35 -29 35 3 0 20
-16 39 -35z m80 -80 c19 -19 32 -35 29 -35 -3 0 -20 16 -39 35 -19 19 -32 35
-29 35 3 0 20 -16 39 -35z m80 -80 c19 -19 32 -35 29 -35 -3 0 -20 16 -39 35
-19 19 -32 35 -29 35 3 0 20 -16 39 -35z m-3340 -548 c0 -1 -111 -112 -247
-247 l-248 -245 245 248 c228 229 250 252 250 244z m3390 -180 c0 -2 -17 -19
-37 -38 l-38 -34 34 38 c33 34 41 42 41 34z m-80 -80 c0 -2 -17 -19 -37 -38
l-38 -34 34 38 c33 34 41 42 41 34z m-80 -80 c0 -2 -17 -19 -37 -38 l-38 -34
34 38 c33 34 41 42 41 34z m-80 -80 c0 -2 -17 -19 -37 -38 l-38 -34 34 38 c33
34 41 42 41 34z m-80 -80 c0 -2 -17 -19 -37 -38 l-38 -34 34 38 c33 34 41 42
41 34z m-80 -80 c0 -2 -12 -14 -27 -28 l-28 -24 24 28 c23 25 31 32 31 24z"/>
<path d="M7071 8576 c-233 -140 -428 -259 -434 -265 -7 -7 413 -10 1429 -10
990 0 1456 -3 1494 -10 167 -33 287 -97 405 -216 50 -49 105 -116 124 -148 75
-128 119 -315 106 -451 -32 -330 -244 -589 -565 -688 l-75 -23 -1391 -3 -1390
-3 -41 -42 -41 -42 119 -280 c65 -154 125 -293 132 -310 8 -16 186 -435 395
-930 210 -495 389 -919 399 -943 l18 -43 920 4 c890 3 923 4 1010 24 380 88
681 307 866 632 178 311 218 688 108 1034 -17 54 -42 114 -55 133 -14 19 -19
32 -12 28 16 -10 -42 93 -106 186 -27 41 -97 122 -155 179 l-104 103 -175
-173 -176 -174 185 190 c102 105 221 224 263 265 269 260 409 609 393 985 -15
343 -136 617 -381 861 -192 192 -384 296 -656 356 -93 21 -119 22 -1140 25
l-1045 3 -424 -254z m2909 -1941 c102 -102 183 -185 180 -185 -3 0 -88 83
-190 185 -102 102 -183 185 -180 185 3 0 88 -83 190 -185z m290 -292 c0 -8 -9
0 -50 45 l-45 47 48 -45 c26 -24 47 -45 47 -47z m90 -90 l75 -78 -77 75 c-72
69 -83 80 -75 80 1 0 36 -35 77 -77z m-750 -37 c36 -10 103 -36 149 -57 70
-32 87 -37 100 -27 14 11 14 11 4 -3 -11 -14 -4 -23 47 -64 206 -165 318 -446
280 -700 -15 -98 -55 -215 -101 -290 -42 -70 -143 -182 -208 -229 -90 -66
-220 -121 -331 -140 -56 -9 -1441 -9 -1449 0 -6 7 -605 1414 -648 1522 -4 10
190 12 1043 10 980 -3 1053 -5 1114 -22z m890 -101 c30 -30 52 -55 49 -55 -2
0 -29 25 -59 55 -30 30 -52 55 -49 55 2 0 29 -25 59 -55z m-3490 -100 c19 -19
32 -35 29 -35 -3 0 -20 16 -39 35 -19 19 -32 35 -29 35 3 0 20 -16 39 -35z
m80 -80 c19 -19 32 -35 29 -35 -3 0 -20 16 -39 35 -19 19 -32 35 -29 35 3 0
20 -16 39 -35z m80 -80 c19 -19 32 -35 29 -35 -3 0 -20 16 -39 35 -19 19 -32
35 -29 35 3 0 20 -16 39 -35z m80 -80 c19 -19 32 -35 29 -35 -3 0 -20 16 -39
35 -19 19 -32 35 -29 35 3 0 20 -16 39 -35z m80 -80 c19 -19 32 -35 29 -35 -3
0 -20 16 -39 35 -19 19 -32 35 -29 35 3 0 20 -16 39 -35z m80 -80 c19 -19 32
-35 29 -35 -3 0 -20 16 -39 35 -19 19 -32 35 -29 35 3 0 20 -16 39 -35z m80
-80 c19 -19 32 -35 29 -35 -3 0 -20 16 -39 35 -19 19 -32 35 -29 35 3 0 20
-16 39 -35z m65 -65 c10 -11 16 -20 13 -20 -3 0 -13 9 -23 20 -10 11 -16 20
-13 20 3 0 13 -9 23 -20z"/>
<path d="M6660 6756 c0 -13 23 -66 29 -66 4 0 22 16 41 35 l34 35 -52 0 c-29
0 -52 -2 -52 -4z"/>
</g>
</svg>
